<svg xmlns="http://www.w3.org/2000/svg" viewBox="-4 -2 40 40" x="0px" y="0px"><title>ecology</title><g data-name="Layer 2"><path d="M28,7.5A2.5,2.5,0,0,0,25.5,5H20.9a5,5,0,0,0-9.8,0H6.5a2.5,2.5,0,0,0-.456,4.954l.805,16.888A4.358,4.358,0,0,0,11.209,31h9.582a4.358,4.358,0,0,0,4.36-4.158l.8-16.888A2.5,2.5,0,0,0,28,7.5ZM16,3a3,3,0,0,1,2.816,2H13.184A3,3,0,0,1,16,3Zm7.153,23.748A2.36,2.36,0,0,1,20.791,29H11.209a2.36,2.36,0,0,1-2.362-2.252L8.049,10h15.9ZM25.5,8H6.5a.5.5,0,0,1,0-1h19a.5.5,0,0,1,0,1Z"/><path d="M13,25a1,1,0,0,0,1-1V14a1,1,0,0,0-2,0V24A1,1,0,0,0,13,25Z"/><path d="M19,25a1,1,0,0,0,1-1V14a1,1,0,0,0-2,0V24A1,1,0,0,0,19,25Z"/></g></svg>